<?xml version="1.0" encoding="utf-8"?>
<svg xmlns="http://www.w3.org/2000/svg"
	xmlns:xlink="http://www.w3.org/1999/xlink"
	width="13px" height="13px" viewBox="0 0 13 13">
<path fillRule="evenodd" d="M 12.61 12.61C 12.11 13.11 11.3 13.11 10.8 12.61 10.8 12.61 8.16 9.97 8.16 9.97 6.09 11.22 3.36 10.97 1.57 9.18-0.53 7.08-0.53 3.67 1.57 1.57 3.67-0.54 7.08-0.54 9.19 1.57 10.97 3.36 11.23 6.08 9.97 8.15 9.97 8.15 12.61 10.8 12.61 10.8 13.11 11.3 13.11 12.11 12.61 12.61ZM 7.73 3.02C 6.43 1.72 4.32 1.72 3.02 3.02 1.72 4.32 1.72 6.43 3.02 7.73 4.32 9.03 6.43 9.03 7.73 7.73 9.04 6.43 9.04 4.32 7.73 3.02Z" fill="rgb(52,61,91)"/></svg>